<svg width="44" height="44" viewBox="0 0 44 44" fill="none" xmlns="http://www.w3.org/2000/svg">
<path d="M4.25 10.6667H34.1667C37.7565 10.6667 40.6667 13.5768 40.6667 17.1667V25.9167C40.6667 29.5065 37.7565 32.4167 34.1667 32.4167H10.75C7.16015 32.4167 4.25 29.5065 4.25 25.9167V10.6667Z" stroke="white" stroke-width="3"/>
<path d="M10.75 2.41669H16.75C20.3399 2.41669 23.25 5.32684 23.25 8.91669V10.4167H4.25V8.91669C4.25 5.32684 7.16015 2.41669 10.75 2.41669Z" stroke="white" stroke-width="3"/>
<path d="M19 20.75H25C28.5899 20.75 31.5 23.6601 31.5 27.25V32.4167H12.5V27.25C12.5 23.6602 15.4102 20.75 19 20.75Z" stroke="white" stroke-width="3"/>
</svg>
