<?xml version="1.0" encoding="UTF-8" standalone="no"?>
<!-- Created with Inkscape (http://www.inkscape.org/) -->

<svg
   width="256"
   height="256"
   viewBox="0 0 67.733332 67.733335"
   version="1.1"
   id="svg1"
   xml:space="preserve"
   inkscape:export-filename="vscode.svg"
   inkscape:export-xdpi="96"
   inkscape:export-ydpi="96"
   inkscape:version="1.3 (0e150ed6c4, 2023-07-21)"
   sodipodi:docname="vscode.svg"
   xmlns:inkscape="http://www.inkscape.org/namespaces/inkscape"
   xmlns:sodipodi="http://sodipodi.sourceforge.net/DTD/sodipodi-0.dtd"
   xmlns="http://www.w3.org/2000/svg"
   xmlns:svg="http://www.w3.org/2000/svg"><sodipodi:namedview
     id="namedview1"
     pagecolor="#000000"
     bordercolor="#eeeeee"
     borderopacity="1"
     inkscape:showpageshadow="0"
     inkscape:pageopacity="0"
     inkscape:pagecheckerboard="0"
     inkscape:deskcolor="#d1d1d1"
     inkscape:document-units="mm"
     showguides="false"
     inkscape:zoom="1.4100704"
     inkscape:cx="-22.339311"
     inkscape:cy="193.25277"
     inkscape:window-width="1920"
     inkscape:window-height="1027"
     inkscape:window-x="-8"
     inkscape:window-y="22"
     inkscape:window-maximized="1"
     inkscape:current-layer="g3" /><defs
     id="defs1"><inkscape:path-effect
       effect="fillet_chamfer"
       id="path-effect5"
       is_visible="true"
       lpeversion="1"
       nodesatellites_param="F,0,0,1,0,1.8520833,0,33 @ F,0,0,1,0,1.8520833,0,33 @ F,0,0,1,0,1.8520833,0,33 @ F,0,0,1,0,1.8520833,0,33 @ F,0,0,1,0,1.8520833,0,33 @ F,0,0,1,0,1.8520833,0,33 @ F,0,0,1,0,1.8520833,0,33 @ F,0,0,1,0,1.8520833,0,33 @ F,0,0,1,0,1.8520833,0,33 @ F,0,0,1,0,1.8520833,0,33 @ F,0,0,1,0,1.8520833,0,33 | F,0,0,1,0,1.8520833,0,33 @ F,0,0,1,0,1.8520833,0,33 @ F,0,0,1,0,1.8520833,0,33"
       radius="8"
       unit="px"
       method="auto"
       mode="F"
       chamfer_steps="33"
       flexible="false"
       use_knot_distance="true"
       apply_no_radius="true"
       apply_with_radius="true"
       only_selected="false"
       hide_knots="false" /><inkscape:path-effect
       effect="fillet_chamfer"
       id="path-effect4"
       is_visible="true"
       lpeversion="1"
       nodesatellites_param="F,0,0,1,0,0,0,1 @ F,0,0,1,0,0,0,1 @ F,0,0,1,0,0,0,1 @ F,0,0,1,0,0,0,1 @ F,0,0,1,0,0,0,1 @ F,0,0,1,0,0,0,1 @ F,0,0,1,0,0,0,1 @ F,0,0,1,0,0,0,1 @ F,0,0,1,0,0,0,1 @ F,0,0,1,0,0,0,1 @ F,0,0,1,0,0,0,1 @ F,0,0,1,0,0,0,1 @ F,0,0,1,0,0,0,1 @ F,0,0,1,0,0,0,1 @ F,0,0,1,0,0,0,1 @ F,0,0,1,0,0,0,1 @ F,0,0,1,0,0,0,1 @ F,0,0,1,0,0,0,1 @ F,0,0,1,0,0,0,1 @ F,0,0,1,0,0,0,1"
       radius="0"
       unit="px"
       method="auto"
       mode="F"
       chamfer_steps="1"
       flexible="false"
       use_knot_distance="true"
       apply_no_radius="true"
       apply_with_radius="true"
       only_selected="false"
       hide_knots="false" /></defs><g
     inkscape:label="Ebene 1"
     inkscape:groupmode="layer"
     id="layer1"><g
       id="g3"
       transform="matrix(1.3174541,0,0,1.3174541,-10.751113,-10.824345)"
       style="stroke-width:3.79519863;stroke-dasharray:none"><path
         id="rect4"
         style="fill:none;stroke:#ffffff;stroke-width:4.97600238;stroke-linecap:butt;stroke-linejoin:round;stroke-dasharray:none;stroke-opacity:1"
         d="M 44.377007,9.3983475 24.69349,25.720993 a 2.3852858,2.3852858 178.1606 0 1 -2.924249,0.09391 L 11.556393,18.397948 a 1.6752036,1.6752036 168.11782 0 0 -2.4315333,0.511615 l -1.9113214,3.277784 a 2.2252686,2.2252686 80.476565 0 0 0.4710507,2.807832 l 8.260752,7.106891 a 1.5513804,1.5513804 90.755158 0 1 -0.03135,2.378354 l -8.1980555,6.685158 a 2.1251342,2.1251342 99.731653 0 0 -0.4720253,2.752306 l 2.4087376,3.955308 a 1.7294404,1.7294404 11.697835 0 0 2.4755612,0.512567 l 9.973728,-7.05223 a 2.3546372,2.3546372 2.9240829 0 1 2.907655,0.148521 l 19.397661,16.92855 a 4.0043827,4.0043827 16.290351 0 0 3.227009,0.943053 l 9.168315,-1.375261 a 2.1506192,2.1506192 130.73457 0 0 1.831592,-2.126825 l 0,-44.938093 A 1.9781054,1.9781054 46.884484 0 0 56.786093,8.9396512 L 47.65075,8.3378518 a 4.6497866,4.6497866 162.0508 0 0 -3.273743,1.0604957 z m 1.998098,14.5490285 v 19.949755 a 0.90791228,0.90791228 153.88538 0 1 -1.464012,0.717675 l -12.53017,-9.709159 a 1.4169312,1.4169312 90.353067 0 1 0.01387,-2.250687 l 12.502432,-9.443388 a 0.92211081,0.92211081 26.467685 0 1 1.477881,0.735804 z"
         inkscape:path-effect="#path-effect5"
         inkscape:original-d="M 45.802672,8.2161079 23.267825,26.903233 10.057809,17.30962 l -3.77722,6.47767 11.068752,9.522669 -11.068752,9.026088 4.335384,7.11899 12.998204,-9.190778 22.188495,19.36414 12.831499,-1.924745 V 9.0613951 Z M 46.375105,22.095293 V 45.749214 L 30.916911,33.771239 Z"
         transform="matrix(0.70166879,0,0,0.70169981,10.690661,10.127518)"
         sodipodi:nodetypes="cccccccccccccccc" /></g></g></svg>
